<svg width="20" height="18" viewBox="0 0 20 18" fill="none" xmlns="http://www.w3.org/2000/svg">
<path d="M0.979156 9.9096L17.1881 9.9096L10.9814 15.8213C10.6564 16.1309 10.6438 16.6452 10.9534 16.9702C11.2626 17.2948 11.7769 17.3078 12.1023 16.9982L19.1905 10.2464C19.4972 9.93925 19.6667 9.53138 19.6667 9.0971C19.6667 8.66322 19.4972 8.25494 19.1763 7.93441L12.1019 1.19635C11.9447 1.04644 11.7432 0.9721 11.5417 0.9721C11.3272 0.9721 11.1127 1.0566 10.953 1.22438C10.6434 1.54938 10.656 2.06329 10.981 2.37285L17.2137 8.2846L0.979156 8.2846C0.530656 8.2846 0.166656 8.6486 0.166656 9.0971C0.166656 9.5456 0.530656 9.9096 0.979156 9.9096Z" fill="#F30F0F" stroke="#F30F0F" stroke-width="0.3"/>
</svg>
