<svg width="21" height="19" viewBox="0 0 21 19" fill="none" xmlns="http://www.w3.org/2000/svg">
<path d="M19.9062 8.59393L3.07386 8.59393L9.51927 2.45481C9.85677 2.13334 9.86984 1.59925 9.54838 1.26175C9.22733 0.924669 8.69323 0.911169 8.35531 1.23264L0.994437 8.2442C0.675922 8.56313 0.5 8.9867 0.5 9.43768C0.5 9.88824 0.675922 10.3122 1.0092 10.6451L8.35573 17.6423C8.519 17.798 8.72825 17.8752 8.9375 17.8752C9.16025 17.8752 9.383 17.7874 9.5488 17.6132C9.87027 17.2757 9.85719 16.742 9.51969 16.4206L3.04728 10.2814L19.9062 10.2814C20.372 10.2814 20.75 9.90343 20.75 9.43768C20.75 8.97193 20.372 8.59393 19.9062 8.59393Z" fill="#122661" stroke="#122661" stroke-width="0.3"/>
</svg>
