<svg width="14" height="14" viewBox="0 0 14 14" fill="none" xmlns="http://www.w3.org/2000/svg">
<g clip-path="url(#clip0)">
<path d="M7.00232 3.40552C5.01724 3.40552 3.41016 5.01435 3.41016 6.99769C3.41016 8.98277 5.01899 10.5899 7.00232 10.5899C8.98741 10.5899 10.5945 8.98102 10.5945 6.99769C10.5945 5.0126 8.98566 3.40552 7.00232 3.40552ZM7.00232 9.32927C5.71374 9.32927 4.67074 8.28569 4.67074 6.99769C4.67074 5.70969 5.71432 4.6661 7.00232 4.6661C8.29032 4.6661 9.33391 5.70969 9.33391 6.99769C9.33449 8.28569 8.29091 9.32927 7.00232 9.32927Z" fill="white"/>
<path d="M9.88592 0.0454404C8.59792 -0.0146429 5.40767 -0.0117263 4.1185 0.0454404C2.98567 0.0985238 1.98642 0.372107 1.18083 1.17769C-0.1655 2.52402 0.00658326 4.33819 0.00658326 6.99878C0.00658326 9.72178 -0.145083 11.4939 1.18083 12.8199C2.53242 14.1709 4.37283 13.9941 7.00192 13.9941C9.69925 13.9941 10.6303 13.9959 11.584 13.6266C12.8808 13.1232 13.8596 11.9641 13.9553 9.88219C14.0159 8.59361 14.0124 5.40394 13.9553 4.11478C13.8398 1.65719 12.5208 0.166774 9.88592 0.0454404ZM11.9247 11.9291C11.0421 12.8117 9.81767 12.7329 6.985 12.7329C4.06833 12.7329 2.89875 12.7761 2.04533 11.9204C1.06242 10.9421 1.24033 9.37119 1.24033 6.98944C1.24033 3.76652 0.909584 1.44544 4.14417 1.27977C4.88733 1.25352 5.10608 1.24477 6.97684 1.24477L7.00308 1.26227C10.1117 1.26227 12.5506 0.936774 12.697 4.17077C12.7303 4.90869 12.7378 5.13036 12.7378 6.99819C12.7373 9.88103 12.7921 11.0576 11.9247 11.9291Z" fill="white"/>
<path d="M10.7368 4.10339C11.2004 4.10339 11.5762 3.72757 11.5762 3.26398C11.5762 2.80038 11.2004 2.42456 10.7368 2.42456C10.2732 2.42456 9.8974 2.80038 9.8974 3.26398C9.8974 3.72757 10.2732 4.10339 10.7368 4.10339Z" fill="white"/>
</g>
<defs>
<clipPath id="clip0">
<rect width="14" height="14" fill="white"/>
</clipPath>
</defs>
</svg>
