<svg width="42" height="42" viewBox="0 0 42 42" fill="none" xmlns="http://www.w3.org/2000/svg">
<path d="M41.9916 16.057C41.9872 16.0088 41.9776 15.9611 41.9628 15.9149C41.9532 15.8736 41.9399 15.8334 41.923 15.7945C41.9034 15.7565 41.8799 15.7206 41.853 15.6873C41.826 15.6479 41.7947 15.6115 41.7599 15.5788C41.7486 15.569 41.7438 15.5557 41.7319 15.5459L34.9997 10.3174V4.89845C34.9997 3.73863 34.0594 2.79834 32.8996 2.79834H25.3133L22.2757 0.439907C21.5254 -0.145334 20.4731 -0.145334 19.7227 0.439907L16.6845 2.79834H9.09822C7.9384 2.79834 6.99811 3.73855 6.99811 4.89845V10.3175L0.26801 15.546C0.256115 15.5558 0.251192 15.5691 0.240036 15.5789C0.205171 15.6115 0.173915 15.648 0.146925 15.6874C0.120018 15.7206 0.0965557 15.7565 0.0769492 15.7946C0.0599679 15.8334 0.0466782 15.8737 0.03708 15.915C0.0224777 15.9605 0.0128796 16.0074 0.00836761 16.055C0.00836761 16.0697 0 16.0823 0 16.097V39.9002C0.000984425 40.3455 0.145039 40.7786 0.410915 41.1357C0.415099 41.142 0.415838 41.1497 0.420678 41.1553C0.4256 41.1609 0.4361 41.1672 0.443073 41.1749C0.836351 41.6924 1.44801 41.9975 2.09797 42.0003H39.8999C40.5524 41.9983 41.1666 41.6917 41.5604 41.1715C41.5659 41.1645 41.5744 41.1624 41.5792 41.1554C41.5842 41.1484 41.5848 41.1421 41.5891 41.1358C41.855 40.7786 41.999 40.3455 42 39.9003V16.099C41.9999 16.0843 41.9923 16.0717 41.9916 16.057ZM20.5788 1.54451C20.8233 1.35025 21.1695 1.35025 21.4139 1.54451L23.0289 2.79826H18.9687L20.5788 1.54451ZM2.27435 40.6003L20.5789 26.3818C20.8235 26.1879 21.1695 26.1879 21.414 26.3818L39.7234 40.6003H2.27435ZM40.5999 39.5089L22.2757 25.2771C21.5252 24.6924 20.4732 24.6924 19.7227 25.2771L1.39788 39.5089V17.1651L12.8694 26.0731C13.1751 26.3101 13.6149 26.2545 13.8519 25.9488C14.0889 25.6432 14.0333 25.2033 13.7276 24.9663L2.07345 15.917L6.9982 12.0898V17.499C6.9982 17.8856 7.31165 18.199 7.6982 18.199C8.08484 18.199 8.39821 17.8856 8.39821 17.499V4.89837C8.39821 4.51173 8.71159 4.19836 9.09822 4.19836H32.8994C33.286 4.19836 33.5994 4.51173 33.5994 4.89837V17.499C33.5994 17.8856 33.9128 18.199 34.2994 18.199C34.686 18.199 34.9994 17.8856 34.9994 17.499V12.0898L39.9242 15.917L28.2497 24.9824C28.0489 25.1346 27.9453 25.383 27.9786 25.6328C28.0119 25.8826 28.1769 26.0953 28.4106 26.1895C28.6443 26.2838 28.9107 26.2452 29.108 26.0884L40.5997 17.1651V39.5089H40.5999Z" fill="#122661"/>
<path d="M29.399 16.7983V13.9982C29.399 9.35877 25.638 5.59778 20.9986 5.59778C16.3591 5.59778 12.5981 9.35877 12.5981 13.9982C12.5981 18.6376 16.3591 22.3986 20.9986 22.3986C21.3852 22.3986 21.6986 22.0853 21.6986 21.6986C21.6986 21.312 21.3852 20.9986 20.9986 20.9986C17.1324 20.9986 13.9982 17.8645 13.9982 13.9983C13.9982 10.1321 17.1324 6.99796 20.9986 6.99796C24.8647 6.99796 27.9989 10.1321 27.9989 13.9983V16.7984C27.9989 17.5717 27.3721 18.1985 26.5988 18.1985C25.8255 18.1985 25.1987 17.5717 25.1987 16.7984V13.9983C25.1987 13.6117 24.8853 13.2983 24.4987 13.2983C24.1121 13.2983 23.7987 13.6117 23.7987 13.9983C23.7987 15.5447 22.545 16.7984 20.9986 16.7984C19.4521 16.7984 18.1985 15.5447 18.1985 13.9983C18.1985 12.4518 19.4521 11.1982 20.9986 11.1982C21.3852 11.1982 21.6986 10.8848 21.6986 10.4982C21.6986 10.1115 21.3852 9.79816 20.9986 9.79816C19.1187 9.79397 17.465 11.0394 16.9498 12.8472C16.4346 14.6551 17.1833 16.5852 18.783 17.5726C20.3827 18.5599 22.4436 18.3642 23.8288 17.0932C23.9812 18.5736 25.2679 19.6744 26.7541 19.5957C28.2403 19.517 29.4037 18.2866 29.399 16.7983Z" fill="#122661"/>
</svg>
