<svg width="35" height="35" viewBox="0 0 35 35" fill="none" xmlns="http://www.w3.org/2000/svg">
<g clip-path="url(#clip0)">
<path d="M22.1663 0C21.8443 0 21.583 0.261337 21.583 0.583309C21.583 0.905281 21.8443 1.16662 22.1663 1.16662C28.5993 1.16662 33.833 6.40027 33.833 12.8333C33.833 13.1553 34.0943 13.4166 34.4163 13.4166C34.7389 13.4166 34.9996 13.1553 34.9996 12.8333C34.9996 5.75694 29.2427 0 22.1663 0Z" fill="#122661"/>
<path d="M22.1663 3.5C21.8443 3.5 21.583 3.76134 21.583 4.08331C21.583 4.40528 21.8443 4.66662 22.1663 4.66662C26.6696 4.66662 30.333 8.32992 30.333 12.8333C30.333 13.1553 30.5943 13.4166 30.9163 13.4166C31.2389 13.4166 31.4996 13.1553 31.4996 12.8333C31.4996 7.68721 27.313 3.5 22.1663 3.5Z" fill="#122661"/>
<path d="M22.1663 7C21.8443 7 21.583 7.26134 21.583 7.58331C21.583 7.90528 21.8443 8.16662 22.1663 8.16662C24.7394 8.16662 26.833 10.2602 26.833 12.8333C26.833 13.1553 27.0943 13.4166 27.4163 13.4166C27.7389 13.4166 27.9996 13.1553 27.9996 12.8333C27.9996 9.61686 25.3828 7 22.1663 7Z" fill="#122661"/>
<path d="M31.5663 21.8895C29.9791 21.6807 28.414 21.291 26.9148 20.7327C25.4629 20.1884 23.8132 20.5396 22.7084 21.6299L20.8644 23.4697C16.9981 21.19 13.7682 17.9666 11.4833 14.1078L13.3284 12.2668C14.4192 11.1661 14.7715 9.51818 14.2261 8.06979C13.6668 6.57299 13.2765 5.01139 13.0665 3.42177C12.787 1.45124 11.0808 -0.00768049 9.08642 -9.26084e-05H3.98286C3.86384 -9.26084e-05 3.74483 0.00571793 3.62705 0.0162453C2.56707 0.111948 1.60751 0.614184 0.925557 1.42971C0.243673 2.24578 -0.0795291 3.27828 0.0173359 4.34633C0.582598 9.65934 2.42009 14.8376 5.32803 19.3175C7.9682 23.4639 11.5598 27.0484 15.7102 29.6805C20.182 32.5749 25.3462 34.4084 30.6563 34.9841C30.7765 34.9947 30.8972 34.9998 31.0185 34.9998C31.022 34.9998 31.0255 34.9998 31.0296 34.9998C33.2276 34.9905 35.0079 33.1985 34.9991 31.0069V25.9208C35.0453 23.9043 33.5729 22.1718 31.5663 21.8895ZM33.8325 25.8999C33.8325 25.9045 33.8325 25.9098 33.8325 25.9144V31.0099C33.8383 32.5604 32.579 33.8273 31.0256 33.8338C30.9346 33.8303 30.8471 33.8303 30.77 33.8232C25.6519 33.2679 20.6632 31.4969 16.339 28.6981C12.328 26.1542 8.8607 22.6938 6.30919 18.6863C3.49805 14.3558 1.72358 9.35426 1.17814 4.23203C1.11047 3.48418 1.33858 2.75506 1.82099 2.17811C2.30341 1.60115 2.9818 1.24596 3.73198 1.17828C3.81538 1.1707 3.89884 1.16659 3.98279 1.16659H9.09161C9.10098 1.16659 9.11028 1.16659 9.11964 1.16659C10.5173 1.16659 11.7149 2.20203 11.9103 3.57981C12.1313 5.25106 12.5426 6.89954 13.1335 8.4798C13.5191 9.5041 13.27 10.6685 12.5017 11.4437L10.3411 13.5997C10.1544 13.7858 10.1159 14.0728 10.246 14.3015C12.7181 18.6415 16.3237 22.2395 20.6713 24.7064C20.9 24.8365 21.1858 24.7968 21.3713 24.6119L23.5296 22.4582C24.3095 21.6889 25.4779 21.4409 26.5058 21.8259C28.0878 22.4151 29.7392 22.8264 31.4081 23.0457C32.8257 23.2451 33.8681 24.4719 33.8325 25.8999Z" fill="#122661"/>
<path d="M8.75028 2.33337H3.9827C3.93369 2.33337 3.88529 2.3357 3.83689 2.34035C3.24251 2.39401 2.87904 2.73116 2.71573 2.9266C2.58448 3.08348 2.28466 3.51168 2.33716 4.09971C2.55768 6.16881 2.95663 8.18185 3.52422 10.0835C3.60003 10.3361 3.83163 10.5 4.08305 10.5C4.13849 10.5 4.19448 10.4925 4.25046 10.4756C4.55904 10.3834 4.73465 10.0585 4.64244 9.74994C4.09529 7.9171 3.71029 5.9746 3.49851 3.98603C3.48511 3.83789 3.58136 3.71013 3.6111 3.67397C3.65895 3.61682 3.76566 3.51825 3.9827 3.50013H8.74912C8.74973 3.50013 8.74973 3.50013 8.74973 3.50013C9.07171 3.50013 9.33304 3.23941 9.33304 2.91737C9.33359 2.59526 9.07225 2.33337 8.75028 2.33337Z" fill="#122661"/>
<path d="M32.083 25.6666C31.761 25.6666 31.4997 25.928 31.4997 26.2499L31.4991 31.0093C31.4997 31.1406 31.4495 31.2642 31.3579 31.3564C31.2663 31.4485 31.145 31.4993 31.0295 31.4999L30.9759 31.4987C28.9826 31.2823 27.0565 30.8984 25.251 30.3577C24.9436 30.2649 24.6176 30.4406 24.5248 30.7491C24.432 31.0577 24.6076 31.3826 24.9162 31.4754C26.7893 32.0365 28.786 32.4344 30.8604 32.6596C30.9083 32.6642 31.0057 32.6665 31.0197 32.6665C31.4613 32.6648 31.8754 32.4915 32.1864 32.1783C32.4973 31.8645 32.6676 31.448 32.6658 31.007L32.6664 26.2499C32.6664 25.928 32.4051 25.6666 32.083 25.6666Z" fill="#122661"/>
</g>
<defs>
<clipPath id="clip0">
<rect width="35" height="35" fill="white"/>
</clipPath>
</defs>
</svg>
