<svg width="15" height="15" viewBox="0 0 15 15" fill="none" xmlns="http://www.w3.org/2000/svg">
<path d="M10.7543 5.49567C10.5105 5.25161 10.1143 5.25161 9.87055 5.49567L7.18742 8.17848L6.0668 7.05817C5.82305 6.81411 5.4268 6.81411 5.18305 7.05817C4.93898 7.30223 4.93898 7.69786 5.18305 7.94192L6.74555 9.50442C6.86742 9.62661 7.02742 9.68755 7.18742 9.68755C7.34742 9.68755 7.50742 9.62661 7.6293 9.50442L10.7543 6.37942C10.9984 6.13536 10.9984 5.73973 10.7543 5.49567Z" fill="#F30F0F"/>
<path d="M14.375 6.875C14.03 6.875 13.75 7.155 13.75 7.5C13.75 10.9462 10.9462 13.75 7.5 13.75C4.05375 13.75 1.25 10.9462 1.25 7.5C1.25 4.05375 4.05375 1.25 7.5 1.25C9.17781 1.25 10.7528 1.90562 11.9353 3.09625C12.1781 3.34156 12.5741 3.34281 12.8191 3.09938C13.0641 2.85625 13.0653 2.46062 12.8222 2.21563C11.4034 0.786875 9.51313 0 7.5 0C3.36437 0 0 3.36437 0 7.5C0 11.6356 3.36437 15 7.5 15C11.6356 15 15 11.6356 15 7.5C15 7.155 14.72 6.875 14.375 6.875Z" fill="#F30F0F"/>
</svg>
