<svg width="14" height="14" viewBox="0 0 14 14" fill="none" xmlns="http://www.w3.org/2000/svg">
<g clip-path="url(#clip0)">
<path d="M13.8752 10.1307C13.8376 10.0677 13.6048 9.56192 12.4847 8.52234C11.3122 7.43376 11.4697 7.61053 12.882 5.72826C13.7422 4.58193 14.0861 3.88187 13.9785 3.5826C13.8761 3.29733 13.2434 3.37259 13.2434 3.37259L11.1398 3.38484C11.1398 3.38484 10.984 3.36384 10.8676 3.43297C10.7547 3.50122 10.6821 3.65873 10.6821 3.65873C10.6821 3.65873 10.3487 4.54605 9.90418 5.30035C8.96699 6.8921 8.59158 6.9761 8.43845 6.87722C8.08229 6.64708 8.17155 5.9514 8.17155 5.45787C8.17155 3.91513 8.40519 3.27195 7.71564 3.10569C7.48638 3.05056 7.31836 3.01381 6.73294 3.00768C5.98214 2.99981 5.34597 3.01031 4.98631 3.1862C4.74655 3.30346 4.56191 3.5651 4.67479 3.57998C4.81393 3.59835 5.12895 3.66486 5.29609 3.89237C5.51223 4.18552 5.50435 4.84532 5.50435 4.84532C5.50435 4.84532 5.62861 6.66108 5.21471 6.88685C4.93031 7.04173 4.54091 6.72584 3.70522 5.2811C3.27731 4.54167 2.95354 3.72349 2.95354 3.72349C2.95354 3.72349 2.89141 3.57123 2.78028 3.48984C2.64552 3.39096 2.4565 3.35946 2.4565 3.35946L0.456104 3.37171C0.456104 3.37171 0.155957 3.38046 0.0456987 3.51085C-0.0523085 3.62723 0.0378231 3.867 0.0378231 3.867C0.0378231 3.867 1.60419 7.53089 3.37707 9.37816C5.00382 11.0714 6.8502 10.9603 6.8502 10.9603H7.68677C7.68677 10.9603 7.93966 10.9323 8.06829 10.7931C8.1873 10.6654 8.18293 10.4256 8.18293 10.4256C8.18293 10.4256 8.1663 9.3029 8.68784 9.13751C9.2015 8.97475 9.8613 10.2226 10.5605 10.703C11.089 11.0662 11.4907 10.9865 11.4907 10.9865L13.3607 10.9603C13.3607 10.9603 14.339 10.8999 13.8752 10.1307Z" fill="white"/>
</g>
<defs>
<clipPath id="clip0">
<rect width="14" height="14" fill="white"/>
</clipPath>
</defs>
</svg>
